<svg viewBox="0 0 98 86" fill="none" xmlns="http://www.w3.org/2000/svg">
  <path
    d="M57.987 53.6801C57.5077 47.8275 49.7127 38.445 47.8207 36.2089C39.8725 26.8317 18.0982 9.4145 14.4818 8C13.4763 9.48477 12.4961 21.1954 12.9015 32.7005C8.33731 31.4464 4.95333 31.6735 2 32.5203C9.44908 37.7423 11.3032 40.1316 16.1684 53.127C21.0335 66.1223 33.6793 75.7373 37.5949 77.8852C37.5949 77.8852 28.261 68.8666 25.0446 59.767C21.5399 49.8439 22.3832 26.6587 22.3832 26.6587C22.3832 26.6587 35.7137 37.0377 39.4292 41.3605C39.4292 41.3605 45.8116 48.2402 47.399 50.9953C49.4712 54.5451 50.8515 57.675 50.2028 60.4751C49.0009 65.9475 43.024 64.6231 48.8225 65.0538C54.1238 65.0484 58.7204 62.1347 57.987 53.6837V53.6801Z"
    fill="#F36769" />
  <path
    d="M57.987 53.6801C57.5077 47.8275 49.7127 38.445 47.8207 36.2089C39.8725 26.8317 18.0982 9.4145 14.4818 8C13.4763 9.48477 12.4961 21.1954 12.9015 32.7005C8.33731 31.4464 4.95333 31.6735 2 32.5203C9.44908 37.7423 11.3032 40.1316 16.1684 53.127C21.0335 66.1223 33.6793 75.7373 37.5949 77.8852C37.5949 77.8852 28.261 68.8666 25.0446 59.767C21.5399 49.8439 22.3832 26.6587 22.3832 26.6587C22.3832 26.6587 35.7137 37.0377 39.4292 41.3605C39.4292 41.3605 45.8116 48.2402 47.399 50.9953C49.4712 54.5451 50.8515 57.675 50.2028 60.4751C49.0009 65.9475 43.024 64.6231 48.8225 65.0538C54.1238 65.0484 58.7204 62.1347 57.987 53.6837V53.6801Z"
    fill="url(#paint0_linear_6074_325)" />
  <path
    d="M39.0562 53.6801C39.5391 47.8275 47.336 38.445 49.2226 36.2089C57.1708 26.8317 78.954 9.4145 82.5722 8C83.5777 9.48477 84.5219 21.1954 84.1219 32.7005C88.6915 31.4464 92.0683 31.6735 95.0324 32.5203C87.5833 37.7423 85.7238 40.1316 80.864 53.1324C76.0043 66.1331 63.3531 75.7427 59.4213 77.8852C59.4213 77.8852 68.7552 68.8666 71.9716 59.767C75.4763 49.8439 74.633 26.6587 74.633 26.6587C74.633 26.6587 61.3134 37.0377 57.6032 41.3605C57.6032 41.3605 51.2209 48.2402 49.6334 50.9953C47.5612 54.5451 46.1809 57.675 46.8296 60.4751C46.9864 61.45 47.4026 62.3671 48.0369 63.1347C48.673 63.9006 49.5055 64.4898 50.4515 64.843L50.6929 64.9258C49.8658 65.0394 49.0298 65.0844 48.1955 65.0592C42.9141 65.0484 38.3481 62.1347 39.0544 53.6819L39.0562 53.6801Z"
    fill="#F36769" />
  <path
    d="M39.0562 53.6801C39.5391 47.8275 47.336 38.445 49.2226 36.2089C57.1708 26.8317 78.954 9.4145 82.5722 8C83.5777 9.48477 84.5219 21.1954 84.1219 32.7005C88.6915 31.4464 92.0683 31.6735 95.0324 32.5203C87.5833 37.7423 85.7238 40.1316 80.864 53.1324C76.0043 66.1331 63.3531 75.7427 59.4213 77.8852C59.4213 77.8852 68.7552 68.8666 71.9716 59.767C75.4763 49.8439 74.633 26.6587 74.633 26.6587C74.633 26.6587 61.3134 37.0377 57.6032 41.3605C57.6032 41.3605 51.2209 48.2402 49.6334 50.9953C47.5612 54.5451 46.1809 57.675 46.8296 60.4751C46.9864 61.45 47.4026 62.3671 48.0369 63.1347C48.673 63.9006 49.5055 64.4898 50.4515 64.843L50.6929 64.9258C49.8658 65.0394 49.0298 65.0844 48.1955 65.0592C42.9141 65.0484 38.3481 62.1347 39.0544 53.6819L39.0562 53.6801Z"
    fill="url(#paint1_linear_6074_325)" />
  <defs>
    <linearGradient id="paint0_linear_6074_325" x1="2" y1="30" x2="54" y2="62" gradientUnits="userSpaceOnUse">
      <stop stop-color="#AA3054" />
      <stop offset="0.415748" stop-color="#EC5868" />
      <stop offset="1" stop-color="#DE4D65" />
    </linearGradient>
    <linearGradient id="paint1_linear_6074_325" x1="42.5" y1="59" x2="95" y2="33" gradientUnits="userSpaceOnUse">
      <stop stop-color="#F58D70" stop-opacity="0.3" />
      <stop offset="1" stop-color="#A62E54" />
    </linearGradient>
  </defs>
</svg>