<svg xmlns="http://www.w3.org/2000/svg">
  <defs>
    <style>
      .img {
        display: none
      }

      .img:target {
        display: inline
      }
    </style>
  </defs>

  <svg width="12" height="8" viewBox="0 0 12 8" fill="none">
    <g id="checkbox" class="img">
      <path fill-rule="evenodd" clip-rule="evenodd"
        d="M11.0251 0.64131C11.2692 0.885388 11.2692 1.28112 11.0251 1.52519L5.19178 7.35853C4.9477 7.6026 4.55197 7.6026 4.3079 7.35853L0.974562 4.02519C0.730484 3.78112 0.730484 3.38539 0.974562 3.14131C1.21864 2.89723 1.61437 2.89723 1.85845 3.14131L4.74984 6.0327L10.1412 0.64131C10.3853 0.397233 10.781 0.397233 11.0251 0.64131Z"
        fill="white" />
    </g>
  </svg>


  <svg width="24" height="24" viewBox="0 0 24 24" fill="none">
    <g id="mail" class="img">
      <path
        d="M7.28924 4.90749C10.4239 4.635 13.5763 4.635 16.7109 4.90749L18.2211 5.03877C19.2265 5.12617 20.0876 5.72584 20.5337 6.58361C20.5908 6.69335 20.548 6.82621 20.4428 6.89132L14.1769 10.7702C12.833 11.6022 11.1385 11.6196 9.77778 10.8156L3.46995 7.0882C3.36804 7.02798 3.32126 6.90402 3.36719 6.79492C3.77535 5.82536 4.69298 5.13318 5.77901 5.03877L7.28924 4.90749Z"
        fill="black" />
      <path
        d="M3.36206 8.76676C3.20609 8.6746 3.00709 8.77377 2.98891 8.95402C2.73518 11.4697 2.79659 14.0091 3.17314 16.5132C3.37166 17.8333 4.44907 18.8454 5.77901 18.961L7.28924 19.0923C10.4239 19.3647 13.5763 19.3647 16.7109 19.0923L18.2211 18.961C19.5511 18.8454 20.6285 17.8333 20.827 16.5132C21.2145 13.9361 21.2683 11.3216 20.9882 8.73415C20.9686 8.55264 20.7662 8.45529 20.611 8.55139L14.9664 12.0456C13.1482 13.1712 10.8557 13.1948 9.01468 12.1069L3.36206 8.76676Z"
        fill="black" />
    </g>
  </svg>

</svg>